<!-- https://github.com/n3r4zzurr0/svg-spinners/blob/main/svg-css/90-ring-with-bg.svg -->
<svg width="24" height="24" viewBox="0 0 24 24" xmlns="http://www.w3.org/2-100/svg">
  <defs>
    <linearGradient id="Gradient" x1="0" y1="0" x2="1" y2="1">
      <stop offset="0%" stop-color="#ADAAFF" />
      <stop offset="80%" stop-color="#fabadb" />
    </linearGradient>
  </defs>
  <style>
    #fill_color {
      fill: #ffffff;
      fill: url(#Gradient)
    }
  </style>


  <g transform="translate(12 12) scale(0.8) translate(-12 -12)">
    <g>
      <animateTransform attributeName="transform" attributeType="XML" type="rotate" from="0 12 12" to="360 12 12"
        dur="0.75s" repeatCount="indefinite" />

      <path d="M12,1A11,11,0,1,0,23,12,11,11,0,0,0,12,1Zm0,19a8,8,0,1,1,8-8A8,8,0,0,1,12,20Z" id="fill_color"
        opacity=".25">
      </path>
      <path
        d="M10.14,1.16a11,11,0,0,0-9,8.92A1.59,1.59,0,0,0,2.46,12,1.52,1.52,0,0,0,4.11,10.7a8,8,0,0,1,6.66-6.61A1.42,1.42,0,0,0,12,2.69h0A1.57,1.57,0,0,0,10.14,1.16Z"
        id="fill_color" />
    </g>
  </g>
</svg>